<mxfile host="app.diagrams.net" agent="Mozilla/5.0 (Windows NT 10.0; Win64; x64) AppleWebKit/537.36 (KHTML, like Gecko) Chrome/132.0.0.0 Safari/537.36" version="26.0.9">
  <diagram name="第 1 页" id="D_iLjtlxCESLnS4mteuK">
    <mxGraphModel dx="1461" dy="618" grid="1" gridSize="10" guides="1" tooltips="1" connect="1" arrows="1" fold="1" page="1" pageScale="1" pageWidth="827" pageHeight="1169" math="0" shadow="0">
      <root>
        <mxCell id="0" />
        <mxCell id="1" parent="0" />
        <mxCell id="KNTMLD6Z3FQGWexC-2fK-97" value="" style="group" vertex="1" connectable="0" parent="1">
          <mxGeometry x="220" y="110" width="805" height="450" as="geometry" />
        </mxCell>
        <mxCell id="KNTMLD6Z3FQGWexC-2fK-1" value="User accounts" style="rounded=0;whiteSpace=wrap;html=1;" vertex="1" parent="KNTMLD6Z3FQGWexC-2fK-97">
          <mxGeometry x="145" y="100" width="90" height="40" as="geometry" />
        </mxCell>
        <mxCell id="KNTMLD6Z3FQGWexC-2fK-2" value="Articles" style="rounded=0;whiteSpace=wrap;html=1;" vertex="1" parent="KNTMLD6Z3FQGWexC-2fK-97">
          <mxGeometry x="165" y="330" width="80" height="40" as="geometry" />
        </mxCell>
        <mxCell id="KNTMLD6Z3FQGWexC-2fK-3" value="Comments" style="rounded=0;whiteSpace=wrap;html=1;" vertex="1" parent="KNTMLD6Z3FQGWexC-2fK-97">
          <mxGeometry x="531" y="142.5" width="80" height="40" as="geometry" />
        </mxCell>
        <mxCell id="KNTMLD6Z3FQGWexC-2fK-6" value="post" style="rhombus;whiteSpace=wrap;html=1;" vertex="1" parent="KNTMLD6Z3FQGWexC-2fK-97">
          <mxGeometry x="85" y="210" width="70" height="60" as="geometry" />
        </mxCell>
        <mxCell id="KNTMLD6Z3FQGWexC-2fK-7" value="" style="endArrow=none;html=1;rounded=0;entryX=0.463;entryY=0.987;entryDx=0;entryDy=0;exitX=0.5;exitY=0;exitDx=0;exitDy=0;entryPerimeter=0;" edge="1" parent="KNTMLD6Z3FQGWexC-2fK-97" source="KNTMLD6Z3FQGWexC-2fK-6" target="KNTMLD6Z3FQGWexC-2fK-1">
          <mxGeometry width="50" height="50" relative="1" as="geometry">
            <mxPoint x="265" y="290" as="sourcePoint" />
            <mxPoint x="315" y="240" as="targetPoint" />
          </mxGeometry>
        </mxCell>
        <mxCell id="KNTMLD6Z3FQGWexC-2fK-8" value="" style="endArrow=none;html=1;rounded=0;entryX=0.5;entryY=1;entryDx=0;entryDy=0;" edge="1" parent="KNTMLD6Z3FQGWexC-2fK-97" source="KNTMLD6Z3FQGWexC-2fK-2" target="KNTMLD6Z3FQGWexC-2fK-6">
          <mxGeometry width="50" height="50" relative="1" as="geometry">
            <mxPoint x="295" y="320" as="sourcePoint" />
            <mxPoint x="229.71000000000004" y="320" as="targetPoint" />
          </mxGeometry>
        </mxCell>
        <mxCell id="KNTMLD6Z3FQGWexC-2fK-10" value="(0,*)" style="text;html=1;align=center;verticalAlign=middle;whiteSpace=wrap;rounded=0;" vertex="1" parent="KNTMLD6Z3FQGWexC-2fK-97">
          <mxGeometry x="115" y="140" width="40" height="30" as="geometry" />
        </mxCell>
        <mxCell id="KNTMLD6Z3FQGWexC-2fK-11" value="(1,1)" style="text;html=1;align=center;verticalAlign=middle;whiteSpace=wrap;rounded=0;" vertex="1" parent="KNTMLD6Z3FQGWexC-2fK-97">
          <mxGeometry x="115" y="310" width="40" height="30" as="geometry" />
        </mxCell>
        <mxCell id="KNTMLD6Z3FQGWexC-2fK-14" value="" style="endArrow=none;html=1;rounded=0;entryX=1;entryY=0.5;entryDx=0;entryDy=0;exitX=0;exitY=0.5;exitDx=0;exitDy=0;" edge="1" parent="KNTMLD6Z3FQGWexC-2fK-97" source="KNTMLD6Z3FQGWexC-2fK-15" target="KNTMLD6Z3FQGWexC-2fK-1">
          <mxGeometry width="50" height="50" relative="1" as="geometry">
            <mxPoint x="305" y="210" as="sourcePoint" />
            <mxPoint x="282" y="209" as="targetPoint" />
          </mxGeometry>
        </mxCell>
        <mxCell id="KNTMLD6Z3FQGWexC-2fK-15" value="post" style="rhombus;whiteSpace=wrap;html=1;" vertex="1" parent="KNTMLD6Z3FQGWexC-2fK-97">
          <mxGeometry x="345" y="47.5" width="80" height="60" as="geometry" />
        </mxCell>
        <mxCell id="KNTMLD6Z3FQGWexC-2fK-16" value="" style="endArrow=none;html=1;rounded=0;entryX=1;entryY=0.5;entryDx=0;entryDy=0;exitX=0;exitY=0.5;exitDx=0;exitDy=0;" edge="1" parent="KNTMLD6Z3FQGWexC-2fK-97" source="KNTMLD6Z3FQGWexC-2fK-3" target="KNTMLD6Z3FQGWexC-2fK-15">
          <mxGeometry width="50" height="50" relative="1" as="geometry">
            <mxPoint x="445" y="209.70999999999998" as="sourcePoint" />
            <mxPoint x="415" y="209.70999999999998" as="targetPoint" />
          </mxGeometry>
        </mxCell>
        <mxCell id="KNTMLD6Z3FQGWexC-2fK-17" style="edgeStyle=orthogonalEdgeStyle;rounded=0;orthogonalLoop=1;jettySize=auto;html=1;exitX=1;exitY=0.5;exitDx=0;exitDy=0;" edge="1" parent="KNTMLD6Z3FQGWexC-2fK-97" source="KNTMLD6Z3FQGWexC-2fK-3" target="KNTMLD6Z3FQGWexC-2fK-3">
          <mxGeometry relative="1" as="geometry" />
        </mxCell>
        <mxCell id="KNTMLD6Z3FQGWexC-2fK-18" value="post" style="rhombus;whiteSpace=wrap;html=1;" vertex="1" parent="KNTMLD6Z3FQGWexC-2fK-97">
          <mxGeometry x="611" y="182.5" width="40" height="40" as="geometry" />
        </mxCell>
        <mxCell id="KNTMLD6Z3FQGWexC-2fK-19" value="(0,*)" style="text;html=1;align=center;verticalAlign=middle;whiteSpace=wrap;rounded=0;" vertex="1" parent="KNTMLD6Z3FQGWexC-2fK-97">
          <mxGeometry x="621" y="122.5" width="40" height="40" as="geometry" />
        </mxCell>
        <mxCell id="KNTMLD6Z3FQGWexC-2fK-20" value="(1,1)" style="text;html=1;align=center;verticalAlign=middle;whiteSpace=wrap;rounded=0;" vertex="1" parent="KNTMLD6Z3FQGWexC-2fK-97">
          <mxGeometry x="561" y="212.5" width="40" height="40" as="geometry" />
        </mxCell>
        <mxCell id="KNTMLD6Z3FQGWexC-2fK-21" value="&lt;b&gt;(1, n)&lt;/b&gt;" style="text;html=1;align=center;verticalAlign=middle;whiteSpace=wrap;rounded=0;" vertex="1" parent="KNTMLD6Z3FQGWexC-2fK-97">
          <mxGeometry x="651" y="202.5" width="40" height="40" as="geometry" />
        </mxCell>
        <mxCell id="KNTMLD6Z3FQGWexC-2fK-22" value="Likes" style="rhombus;whiteSpace=wrap;html=1;" vertex="1" parent="KNTMLD6Z3FQGWexC-2fK-97">
          <mxGeometry x="235" y="210" width="70" height="60" as="geometry" />
        </mxCell>
        <mxCell id="KNTMLD6Z3FQGWexC-2fK-23" value="" style="endArrow=none;html=1;rounded=0;entryX=0.461;entryY=1.046;entryDx=0;entryDy=0;exitX=0.5;exitY=0;exitDx=0;exitDy=0;entryPerimeter=0;" edge="1" parent="KNTMLD6Z3FQGWexC-2fK-97" source="KNTMLD6Z3FQGWexC-2fK-22" target="KNTMLD6Z3FQGWexC-2fK-1">
          <mxGeometry width="50" height="50" relative="1" as="geometry">
            <mxPoint x="340" y="170" as="sourcePoint" />
            <mxPoint x="205" y="140" as="targetPoint" />
          </mxGeometry>
        </mxCell>
        <mxCell id="KNTMLD6Z3FQGWexC-2fK-25" value="" style="endArrow=none;html=1;rounded=0;entryX=0.5;entryY=1;entryDx=0;entryDy=0;exitX=0.638;exitY=-0.046;exitDx=0;exitDy=0;exitPerimeter=0;" edge="1" parent="KNTMLD6Z3FQGWexC-2fK-97" source="KNTMLD6Z3FQGWexC-2fK-2" target="KNTMLD6Z3FQGWexC-2fK-22">
          <mxGeometry width="50" height="50" relative="1" as="geometry">
            <mxPoint x="359" y="330" as="sourcePoint" />
            <mxPoint x="295" y="270" as="targetPoint" />
          </mxGeometry>
        </mxCell>
        <mxCell id="KNTMLD6Z3FQGWexC-2fK-26" value="(0,*)" style="text;html=1;align=center;verticalAlign=middle;whiteSpace=wrap;rounded=0;" vertex="1" parent="KNTMLD6Z3FQGWexC-2fK-97">
          <mxGeometry x="235" y="140" width="40" height="30" as="geometry" />
        </mxCell>
        <mxCell id="KNTMLD6Z3FQGWexC-2fK-27" value="(0,*)" style="text;html=1;align=center;verticalAlign=middle;whiteSpace=wrap;rounded=0;" vertex="1" parent="KNTMLD6Z3FQGWexC-2fK-97">
          <mxGeometry x="235" y="300" width="40" height="30" as="geometry" />
        </mxCell>
        <mxCell id="KNTMLD6Z3FQGWexC-2fK-28" value="&lt;b&gt;(m, n)&lt;/b&gt;" style="text;html=1;align=center;verticalAlign=middle;whiteSpace=wrap;rounded=0;" vertex="1" parent="KNTMLD6Z3FQGWexC-2fK-97">
          <mxGeometry x="289" y="260" width="40" height="40" as="geometry" />
        </mxCell>
        <mxCell id="KNTMLD6Z3FQGWexC-2fK-29" value="&lt;b&gt;(1, n)&lt;/b&gt;" style="text;html=1;align=center;verticalAlign=middle;whiteSpace=wrap;rounded=0;" vertex="1" parent="KNTMLD6Z3FQGWexC-2fK-97">
          <mxGeometry x="145" y="240" width="40" height="40" as="geometry" />
        </mxCell>
        <mxCell id="KNTMLD6Z3FQGWexC-2fK-30" value="(0,*)" style="text;html=1;align=center;verticalAlign=middle;whiteSpace=wrap;rounded=0;" vertex="1" parent="KNTMLD6Z3FQGWexC-2fK-97">
          <mxGeometry x="235" y="70" width="40" height="30" as="geometry" />
        </mxCell>
        <mxCell id="KNTMLD6Z3FQGWexC-2fK-31" value="(1,1)" style="text;html=1;align=center;verticalAlign=middle;whiteSpace=wrap;rounded=0;" vertex="1" parent="KNTMLD6Z3FQGWexC-2fK-97">
          <mxGeometry x="505" y="107.5" width="40" height="30" as="geometry" />
        </mxCell>
        <mxCell id="KNTMLD6Z3FQGWexC-2fK-32" value="&lt;b&gt;(1, n)&lt;/b&gt;" style="text;html=1;align=center;verticalAlign=middle;whiteSpace=wrap;rounded=0;" vertex="1" parent="KNTMLD6Z3FQGWexC-2fK-97">
          <mxGeometry x="365" y="7.5" width="40" height="40" as="geometry" />
        </mxCell>
        <mxCell id="KNTMLD6Z3FQGWexC-2fK-33" value="" style="endArrow=none;html=1;rounded=0;entryX=1;entryY=0.5;entryDx=0;entryDy=0;exitX=0;exitY=0.5;exitDx=0;exitDy=0;" edge="1" parent="KNTMLD6Z3FQGWexC-2fK-97" source="KNTMLD6Z3FQGWexC-2fK-34">
          <mxGeometry width="50" height="50" relative="1" as="geometry">
            <mxPoint x="335" y="320" as="sourcePoint" />
            <mxPoint x="245" y="350" as="targetPoint" />
          </mxGeometry>
        </mxCell>
        <mxCell id="KNTMLD6Z3FQGWexC-2fK-34" value="belong" style="rhombus;whiteSpace=wrap;html=1;" vertex="1" parent="KNTMLD6Z3FQGWexC-2fK-97">
          <mxGeometry x="315" y="310" width="80" height="60" as="geometry" />
        </mxCell>
        <mxCell id="KNTMLD6Z3FQGWexC-2fK-35" value="" style="endArrow=none;html=1;rounded=0;entryX=1;entryY=0.5;entryDx=0;entryDy=0;exitX=0.946;exitY=0.144;exitDx=0;exitDy=0;exitPerimeter=0;" edge="1" parent="KNTMLD6Z3FQGWexC-2fK-97" source="KNTMLD6Z3FQGWexC-2fK-36" target="KNTMLD6Z3FQGWexC-2fK-34">
          <mxGeometry width="50" height="50" relative="1" as="geometry">
            <mxPoint x="425" y="220" as="sourcePoint" />
            <mxPoint x="405" y="330" as="targetPoint" />
          </mxGeometry>
        </mxCell>
        <mxCell id="KNTMLD6Z3FQGWexC-2fK-36" value="(1,1)" style="text;html=1;align=center;verticalAlign=middle;whiteSpace=wrap;rounded=0;" vertex="1" parent="KNTMLD6Z3FQGWexC-2fK-97">
          <mxGeometry x="505" y="177.5" width="40" height="40" as="geometry" />
        </mxCell>
        <mxCell id="KNTMLD6Z3FQGWexC-2fK-37" value="(0,*)" style="text;html=1;align=center;verticalAlign=middle;whiteSpace=wrap;rounded=0;" vertex="1" parent="KNTMLD6Z3FQGWexC-2fK-97">
          <mxGeometry x="250" y="350" width="40" height="40" as="geometry" />
        </mxCell>
        <mxCell id="KNTMLD6Z3FQGWexC-2fK-38" value="&lt;b&gt;(1, n)&lt;/b&gt;" style="text;html=1;align=center;verticalAlign=middle;whiteSpace=wrap;rounded=0;" vertex="1" parent="KNTMLD6Z3FQGWexC-2fK-97">
          <mxGeometry x="385" y="350" width="40" height="40" as="geometry" />
        </mxCell>
        <mxCell id="KNTMLD6Z3FQGWexC-2fK-39" value="id" style="ellipse;whiteSpace=wrap;html=1;" vertex="1" parent="KNTMLD6Z3FQGWexC-2fK-97">
          <mxGeometry x="35" y="60" width="40" height="20" as="geometry" />
        </mxCell>
        <mxCell id="KNTMLD6Z3FQGWexC-2fK-42" value="" style="endArrow=none;html=1;rounded=0;entryX=0.5;entryY=1;entryDx=0;entryDy=0;exitX=0;exitY=0;exitDx=0;exitDy=0;" edge="1" parent="KNTMLD6Z3FQGWexC-2fK-97" source="KNTMLD6Z3FQGWexC-2fK-1" target="KNTMLD6Z3FQGWexC-2fK-39">
          <mxGeometry width="50" height="50" relative="1" as="geometry">
            <mxPoint x="110" y="105" as="sourcePoint" />
            <mxPoint x="160" y="55" as="targetPoint" />
          </mxGeometry>
        </mxCell>
        <mxCell id="KNTMLD6Z3FQGWexC-2fK-45" value="username" style="ellipse;whiteSpace=wrap;html=1;" vertex="1" parent="KNTMLD6Z3FQGWexC-2fK-97">
          <mxGeometry x="55" y="20" width="80" height="20" as="geometry" />
        </mxCell>
        <mxCell id="KNTMLD6Z3FQGWexC-2fK-46" value="" style="endArrow=none;html=1;rounded=0;entryX=0.403;entryY=1.026;entryDx=0;entryDy=0;entryPerimeter=0;" edge="1" parent="KNTMLD6Z3FQGWexC-2fK-97" target="KNTMLD6Z3FQGWexC-2fK-45">
          <mxGeometry width="50" height="50" relative="1" as="geometry">
            <mxPoint x="145" y="100" as="sourcePoint" />
            <mxPoint x="135" y="40" as="targetPoint" />
          </mxGeometry>
        </mxCell>
        <mxCell id="KNTMLD6Z3FQGWexC-2fK-47" value="password" style="ellipse;whiteSpace=wrap;html=1;" vertex="1" parent="KNTMLD6Z3FQGWexC-2fK-97">
          <mxGeometry x="135" width="80" height="20" as="geometry" />
        </mxCell>
        <mxCell id="KNTMLD6Z3FQGWexC-2fK-48" value="" style="endArrow=none;html=1;rounded=0;entryX=0.403;entryY=1.026;entryDx=0;entryDy=0;entryPerimeter=0;" edge="1" parent="KNTMLD6Z3FQGWexC-2fK-97" target="KNTMLD6Z3FQGWexC-2fK-47">
          <mxGeometry width="50" height="50" relative="1" as="geometry">
            <mxPoint x="145" y="100" as="sourcePoint" />
            <mxPoint x="210" y="10" as="targetPoint" />
          </mxGeometry>
        </mxCell>
        <mxCell id="KNTMLD6Z3FQGWexC-2fK-50" value="" style="endArrow=none;html=1;rounded=0;exitX=0;exitY=0;exitDx=0;exitDy=0;" edge="1" parent="KNTMLD6Z3FQGWexC-2fK-97" source="KNTMLD6Z3FQGWexC-2fK-1">
          <mxGeometry width="50" height="50" relative="1" as="geometry">
            <mxPoint x="175" y="100" as="sourcePoint" />
            <mxPoint x="197" y="50" as="targetPoint" />
          </mxGeometry>
        </mxCell>
        <mxCell id="KNTMLD6Z3FQGWexC-2fK-51" value="name" style="ellipse;whiteSpace=wrap;html=1;" vertex="1" parent="KNTMLD6Z3FQGWexC-2fK-97">
          <mxGeometry x="170" y="30" width="80" height="20" as="geometry" />
        </mxCell>
        <mxCell id="KNTMLD6Z3FQGWexC-2fK-53" value="description" style="ellipse;whiteSpace=wrap;html=1;" vertex="1" parent="KNTMLD6Z3FQGWexC-2fK-97">
          <mxGeometry y="100" width="70" height="30" as="geometry" />
        </mxCell>
        <mxCell id="KNTMLD6Z3FQGWexC-2fK-54" value="" style="endArrow=none;html=1;rounded=0;entryX=1;entryY=0.5;entryDx=0;entryDy=0;exitX=0;exitY=0;exitDx=0;exitDy=0;" edge="1" target="KNTMLD6Z3FQGWexC-2fK-53" parent="KNTMLD6Z3FQGWexC-2fK-97" source="KNTMLD6Z3FQGWexC-2fK-1">
          <mxGeometry width="50" height="50" relative="1" as="geometry">
            <mxPoint x="145" y="140" as="sourcePoint" />
            <mxPoint x="160" y="95" as="targetPoint" />
          </mxGeometry>
        </mxCell>
        <mxCell id="KNTMLD6Z3FQGWexC-2fK-55" value="" style="endArrow=none;html=1;rounded=0;exitX=0;exitY=0;exitDx=0;exitDy=0;entryX=0.98;entryY=0.343;entryDx=0;entryDy=0;entryPerimeter=0;" edge="1" parent="KNTMLD6Z3FQGWexC-2fK-97" source="KNTMLD6Z3FQGWexC-2fK-1" target="KNTMLD6Z3FQGWexC-2fK-56">
          <mxGeometry width="50" height="50" relative="1" as="geometry">
            <mxPoint x="-15" y="225" as="sourcePoint" />
            <mxPoint x="37" y="175" as="targetPoint" />
          </mxGeometry>
        </mxCell>
        <mxCell id="KNTMLD6Z3FQGWexC-2fK-56" value="avatar" style="ellipse;whiteSpace=wrap;html=1;" vertex="1" parent="KNTMLD6Z3FQGWexC-2fK-97">
          <mxGeometry x="5" y="150" width="70" height="20" as="geometry" />
        </mxCell>
        <mxCell id="KNTMLD6Z3FQGWexC-2fK-57" value="" style="endArrow=none;html=1;rounded=0;entryX=0.98;entryY=0.343;entryDx=0;entryDy=0;entryPerimeter=0;" edge="1" parent="KNTMLD6Z3FQGWexC-2fK-97" target="KNTMLD6Z3FQGWexC-2fK-58">
          <mxGeometry width="50" height="50" relative="1" as="geometry">
            <mxPoint x="200" y="370" as="sourcePoint" />
            <mxPoint x="82" y="445" as="targetPoint" />
          </mxGeometry>
        </mxCell>
        <mxCell id="KNTMLD6Z3FQGWexC-2fK-58" value="id" style="ellipse;whiteSpace=wrap;html=1;" vertex="1" parent="KNTMLD6Z3FQGWexC-2fK-97">
          <mxGeometry x="45" y="390" width="70" height="20" as="geometry" />
        </mxCell>
        <mxCell id="KNTMLD6Z3FQGWexC-2fK-59" value="author_id" style="ellipse;whiteSpace=wrap;html=1;" vertex="1" parent="KNTMLD6Z3FQGWexC-2fK-97">
          <mxGeometry x="90" y="420" width="70" height="20" as="geometry" />
        </mxCell>
        <mxCell id="KNTMLD6Z3FQGWexC-2fK-60" value="" style="endArrow=none;html=1;rounded=0;" edge="1" parent="KNTMLD6Z3FQGWexC-2fK-97" target="KNTMLD6Z3FQGWexC-2fK-59">
          <mxGeometry width="50" height="50" relative="1" as="geometry">
            <mxPoint x="202" y="370" as="sourcePoint" />
            <mxPoint x="140" y="397" as="targetPoint" />
          </mxGeometry>
        </mxCell>
        <mxCell id="KNTMLD6Z3FQGWexC-2fK-61" value="title" style="ellipse;whiteSpace=wrap;html=1;" vertex="1" parent="KNTMLD6Z3FQGWexC-2fK-97">
          <mxGeometry x="160" y="430" width="70" height="20" as="geometry" />
        </mxCell>
        <mxCell id="KNTMLD6Z3FQGWexC-2fK-62" value="" style="endArrow=none;html=1;rounded=0;entryX=0.384;entryY=0.036;entryDx=0;entryDy=0;entryPerimeter=0;" edge="1" parent="KNTMLD6Z3FQGWexC-2fK-97" target="KNTMLD6Z3FQGWexC-2fK-61">
          <mxGeometry width="50" height="50" relative="1" as="geometry">
            <mxPoint x="200" y="370" as="sourcePoint" />
            <mxPoint x="199" y="410" as="targetPoint" />
          </mxGeometry>
        </mxCell>
        <mxCell id="KNTMLD6Z3FQGWexC-2fK-63" value="created_at" style="ellipse;whiteSpace=wrap;html=1;" vertex="1" parent="KNTMLD6Z3FQGWexC-2fK-97">
          <mxGeometry x="230" y="430" width="80" height="20" as="geometry" />
        </mxCell>
        <mxCell id="KNTMLD6Z3FQGWexC-2fK-64" value="" style="endArrow=none;html=1;rounded=0;entryX=0.384;entryY=0.036;entryDx=0;entryDy=0;entryPerimeter=0;" edge="1" parent="KNTMLD6Z3FQGWexC-2fK-97" target="KNTMLD6Z3FQGWexC-2fK-63">
          <mxGeometry width="50" height="50" relative="1" as="geometry">
            <mxPoint x="200" y="370" as="sourcePoint" />
            <mxPoint x="279" y="420" as="targetPoint" />
          </mxGeometry>
        </mxCell>
        <mxCell id="KNTMLD6Z3FQGWexC-2fK-65" value="content" style="ellipse;whiteSpace=wrap;html=1;" vertex="1" parent="KNTMLD6Z3FQGWexC-2fK-97">
          <mxGeometry x="315" y="430" width="80" height="20" as="geometry" />
        </mxCell>
        <mxCell id="KNTMLD6Z3FQGWexC-2fK-66" value="" style="endArrow=none;html=1;rounded=0;entryX=0;entryY=0;entryDx=0;entryDy=0;" edge="1" parent="KNTMLD6Z3FQGWexC-2fK-97" target="KNTMLD6Z3FQGWexC-2fK-65">
          <mxGeometry width="50" height="50" relative="1" as="geometry">
            <mxPoint x="200" y="370" as="sourcePoint" />
            <mxPoint x="351" y="431" as="targetPoint" />
          </mxGeometry>
        </mxCell>
        <mxCell id="KNTMLD6Z3FQGWexC-2fK-71" value="" style="endArrow=none;html=1;rounded=0;entryX=0;entryY=0.5;entryDx=0;entryDy=0;exitX=1;exitY=0.5;exitDx=0;exitDy=0;" edge="1" parent="KNTMLD6Z3FQGWexC-2fK-97" source="KNTMLD6Z3FQGWexC-2fK-72" target="KNTMLD6Z3FQGWexC-2fK-2">
          <mxGeometry width="50" height="50" relative="1" as="geometry">
            <mxPoint x="95" y="360" as="sourcePoint" />
            <mxPoint x="90" y="321" as="targetPoint" />
          </mxGeometry>
        </mxCell>
        <mxCell id="KNTMLD6Z3FQGWexC-2fK-72" value="likes_number" style="ellipse;whiteSpace=wrap;html=1;" vertex="1" parent="KNTMLD6Z3FQGWexC-2fK-97">
          <mxGeometry x="5" y="350" width="100" height="20" as="geometry" />
        </mxCell>
        <mxCell id="KNTMLD6Z3FQGWexC-2fK-73" value="likes_id" style="ellipse;whiteSpace=wrap;html=1;" vertex="1" parent="KNTMLD6Z3FQGWexC-2fK-97">
          <mxGeometry x="295" y="172.5" width="60" height="20" as="geometry" />
        </mxCell>
        <mxCell id="KNTMLD6Z3FQGWexC-2fK-74" value="" style="endArrow=none;html=1;rounded=0;entryX=0.403;entryY=1.006;entryDx=0;entryDy=0;exitX=1;exitY=0.5;exitDx=0;exitDy=0;entryPerimeter=0;" edge="1" parent="KNTMLD6Z3FQGWexC-2fK-97" source="KNTMLD6Z3FQGWexC-2fK-22" target="KNTMLD6Z3FQGWexC-2fK-73">
          <mxGeometry width="50" height="50" relative="1" as="geometry">
            <mxPoint x="335" y="242.5" as="sourcePoint" />
            <mxPoint x="380" y="217.5" as="targetPoint" />
          </mxGeometry>
        </mxCell>
        <mxCell id="KNTMLD6Z3FQGWexC-2fK-75" value="" style="endArrow=none;html=1;rounded=0;exitX=1;exitY=0.5;exitDx=0;exitDy=0;" edge="1" parent="KNTMLD6Z3FQGWexC-2fK-97" source="KNTMLD6Z3FQGWexC-2fK-22">
          <mxGeometry width="50" height="50" relative="1" as="geometry">
            <mxPoint x="335" y="242.5" as="sourcePoint" />
            <mxPoint x="355" y="222.5" as="targetPoint" />
          </mxGeometry>
        </mxCell>
        <mxCell id="KNTMLD6Z3FQGWexC-2fK-76" value="users_id" style="ellipse;whiteSpace=wrap;html=1;" vertex="1" parent="KNTMLD6Z3FQGWexC-2fK-97">
          <mxGeometry x="335" y="205" width="68" height="15" as="geometry" />
        </mxCell>
        <mxCell id="KNTMLD6Z3FQGWexC-2fK-77" value="" style="endArrow=none;html=1;rounded=0;entryX=0;entryY=0.5;entryDx=0;entryDy=0;" edge="1" parent="KNTMLD6Z3FQGWexC-2fK-97" target="KNTMLD6Z3FQGWexC-2fK-78">
          <mxGeometry width="50" height="50" relative="1" as="geometry">
            <mxPoint x="305" y="240" as="sourcePoint" />
            <mxPoint x="355" y="242.5" as="targetPoint" />
          </mxGeometry>
        </mxCell>
        <mxCell id="KNTMLD6Z3FQGWexC-2fK-78" value="article_id" style="ellipse;whiteSpace=wrap;html=1;" vertex="1" parent="KNTMLD6Z3FQGWexC-2fK-97">
          <mxGeometry x="375" y="232.5" width="68" height="20" as="geometry" />
        </mxCell>
        <mxCell id="KNTMLD6Z3FQGWexC-2fK-81" value="" style="endArrow=none;html=1;rounded=0;exitX=0.404;exitY=-0.029;exitDx=0;exitDy=0;exitPerimeter=0;entryX=0.5;entryY=1;entryDx=0;entryDy=0;" edge="1" parent="KNTMLD6Z3FQGWexC-2fK-97" source="KNTMLD6Z3FQGWexC-2fK-3" target="KNTMLD6Z3FQGWexC-2fK-82">
          <mxGeometry width="50" height="50" relative="1" as="geometry">
            <mxPoint x="532" y="80" as="sourcePoint" />
            <mxPoint x="582" y="62.5" as="targetPoint" />
          </mxGeometry>
        </mxCell>
        <mxCell id="KNTMLD6Z3FQGWexC-2fK-82" value="comment_id" style="ellipse;whiteSpace=wrap;html=1;" vertex="1" parent="KNTMLD6Z3FQGWexC-2fK-97">
          <mxGeometry x="465" y="30" width="88" height="30" as="geometry" />
        </mxCell>
        <mxCell id="KNTMLD6Z3FQGWexC-2fK-83" value="users_id" style="ellipse;whiteSpace=wrap;html=1;" vertex="1" parent="KNTMLD6Z3FQGWexC-2fK-97">
          <mxGeometry x="555" y="30" width="70" height="30" as="geometry" />
        </mxCell>
        <mxCell id="KNTMLD6Z3FQGWexC-2fK-84" value="" style="endArrow=none;html=1;rounded=0;entryX=0;entryY=1;entryDx=0;entryDy=0;" edge="1" parent="KNTMLD6Z3FQGWexC-2fK-97" target="KNTMLD6Z3FQGWexC-2fK-83">
          <mxGeometry width="50" height="50" relative="1" as="geometry">
            <mxPoint x="565" y="140" as="sourcePoint" />
            <mxPoint x="514" y="70" as="targetPoint" />
          </mxGeometry>
        </mxCell>
        <mxCell id="KNTMLD6Z3FQGWexC-2fK-85" value="" style="endArrow=none;html=1;rounded=0;" edge="1" parent="KNTMLD6Z3FQGWexC-2fK-97">
          <mxGeometry width="50" height="50" relative="1" as="geometry">
            <mxPoint x="565" y="140" as="sourcePoint" />
            <mxPoint x="615" y="100" as="targetPoint" />
          </mxGeometry>
        </mxCell>
        <mxCell id="KNTMLD6Z3FQGWexC-2fK-86" value="article_id" style="ellipse;whiteSpace=wrap;html=1;" vertex="1" parent="KNTMLD6Z3FQGWexC-2fK-97">
          <mxGeometry x="591" y="70" width="70" height="30" as="geometry" />
        </mxCell>
        <mxCell id="KNTMLD6Z3FQGWexC-2fK-87" value="" style="endArrow=none;html=1;rounded=0;entryX=1;entryY=0;entryDx=0;entryDy=0;" edge="1" parent="KNTMLD6Z3FQGWexC-2fK-97" target="KNTMLD6Z3FQGWexC-2fK-19">
          <mxGeometry width="50" height="50" relative="1" as="geometry">
            <mxPoint x="565" y="140" as="sourcePoint" />
            <mxPoint x="655" y="110" as="targetPoint" />
          </mxGeometry>
        </mxCell>
        <mxCell id="KNTMLD6Z3FQGWexC-2fK-88" value="content" style="ellipse;whiteSpace=wrap;html=1;" vertex="1" parent="KNTMLD6Z3FQGWexC-2fK-97">
          <mxGeometry x="661" y="107.5" width="70" height="30" as="geometry" />
        </mxCell>
        <mxCell id="KNTMLD6Z3FQGWexC-2fK-89" value="" style="endArrow=none;html=1;rounded=0;" edge="1" parent="KNTMLD6Z3FQGWexC-2fK-97" target="KNTMLD6Z3FQGWexC-2fK-90">
          <mxGeometry width="50" height="50" relative="1" as="geometry">
            <mxPoint x="565" y="140" as="sourcePoint" />
            <mxPoint x="757" y="33" as="targetPoint" />
          </mxGeometry>
        </mxCell>
        <mxCell id="KNTMLD6Z3FQGWexC-2fK-90" value="created_at" style="ellipse;whiteSpace=wrap;html=1;" vertex="1" parent="KNTMLD6Z3FQGWexC-2fK-97">
          <mxGeometry x="735" y="55" width="70" height="30" as="geometry" />
        </mxCell>
        <mxCell id="KNTMLD6Z3FQGWexC-2fK-91" value="" style="endArrow=none;html=1;rounded=0;entryX=1;entryY=0;entryDx=0;entryDy=0;exitX=0.25;exitY=1;exitDx=0;exitDy=0;" edge="1" parent="KNTMLD6Z3FQGWexC-2fK-97" source="KNTMLD6Z3FQGWexC-2fK-3">
          <mxGeometry width="50" height="50" relative="1" as="geometry">
            <mxPoint x="485" y="332.5" as="sourcePoint" />
            <mxPoint x="581" y="315.5" as="targetPoint" />
          </mxGeometry>
        </mxCell>
        <mxCell id="KNTMLD6Z3FQGWexC-2fK-92" value="parent_id" style="ellipse;whiteSpace=wrap;html=1;" vertex="1" parent="KNTMLD6Z3FQGWexC-2fK-97">
          <mxGeometry x="561" y="310" width="70" height="30" as="geometry" />
        </mxCell>
      </root>
    </mxGraphModel>
  </diagram>
</mxfile>
